<svg width="200" height="200" xmlns="http://www.w3.org/2000/svg">
  <defs>
    <linearGradient id="grad1" x1="0%" y1="0%" x2="100%" y2="100%">
      <stop offset="0%" style="stop-color:#3B82F6;stop-opacity:1" />
      <stop offset="100%" style="stop-color:#06B6D4;stop-opacity:1" />
    </linearGradient>
  </defs>
  
  <!-- Background -->
  <rect width="200" height="200" rx="40" fill="url(#grad1)"/>
  
  <!-- Shopping Bag Icon -->
  <path d="M 60 70 L 60 90 L 60 160 Q 60 170 70 170 L 130 170 Q 140 170 140 160 L 140 90 L 140 70" 
        fill="none" stroke="white" stroke-width="6" stroke-linecap="round" stroke-linejoin="round"/>
  
  <path d="M 50 70 L 150 70" 
        stroke="white" stroke-width="6" stroke-linecap="round"/>
  
  <!-- Handle -->
  <path d="M 80 70 Q 80 45 100 45 Q 120 45 120 70" 
        fill="none" stroke="white" stroke-width="6" stroke-linecap="round"/>
  
  <!-- AI Sparkle -->
  <circle cx="145" cy="55" r="8" fill="white"/>
  <path d="M 145 47 L 145 63 M 137 55 L 153 55" 
        stroke="#3B82F6" stroke-width="3" stroke-linecap="round"/>
  
  <!-- Additional sparkles -->
  <circle cx="55" cy="85" r="4" fill="white" opacity="0.8"/>
  <circle cx="135" cy="140" r="4" fill="white" opacity="0.8"/>
</svg>
